<?xml version="1.0" encoding="UTF-8" standalone="no"?>
<!DOCTYPE svg PUBLIC "-//W3C//DTD SVG 1.1//EN" "http://www.w3.org/Graphics/SVG/1.1/DTD/svg11.dtd">
<svg width="100%" height="100%" viewBox="0 0 2250 2250" version="1.1" xmlns="http://www.w3.org/2000/svg" xmlns:xlink="http://www.w3.org/1999/xlink" xml:space="preserve" xmlns:serif="http://www.serif.com/" style="fill-rule:evenodd;clip-rule:evenodd;stroke-linecap:round;stroke-linejoin:round;stroke-miterlimit:1.5;">
    <g transform="matrix(-1,0,0,1,2349.56,0)">
        <path d="M883.252,176.692L1463.52,177.374L1468.24,248.507L1756.63,251.753L1759.65,396.375L1896.82,398.323L1903.63,549.803L2035.83,552.169L2040.86,1015.86L2195.58,1014.68L2202.85,2139.82L2040.95,2139.28L2039.5,1997.1L1898.94,1998.26L1896.17,1853.92L1767.1,1856.55L1764.23,1999.1L1634.35,1998.32L1630.65,2143.96L1307.01,2142.59L1307.31,1854.82L1025.09,1855.21L1024.31,2145.61L755.011,2143.32L753.368,2008.53L607.404,2006.32L605.713,1856.93L451.985,1857.67L451.293,2017.57L299.566,2019.35L297.907,2139.29L190.552,2138.11L191.982,990.443L292.561,988.543L301.594,541.475L452.264,538.56L453.393,392.086L604.855,392.404L609.598,249.692L879.863,245.553L883.252,176.688L883.252,176.692Z" style="stroke:black;stroke-width:2.08px;"/>
    </g>
    <g transform="matrix(-1,0,0,1,2349.56,0)">
        <path d="M839.412,115.028L1419.68,115.711L1424.4,186.843L1712.79,190.089L1715.81,334.711L1852.98,336.66L1859.79,488.139L1991.99,490.505L1997.02,954.194L2151.74,953.017L2159.01,2078.16L1997.11,2077.62L1995.65,1935.44L1855.1,1936.59L1852.33,1792.26L1723.26,1794.88L1720.39,1937.44L1590.51,1936.66L1586.81,2082.3L1263.17,2080.92L1263.47,1793.15L981.25,1793.55L980.469,2083.95L711.171,2081.66L709.529,1946.86L563.564,1944.66L561.873,1795.27L408.145,1796.01L407.453,1955.91L255.726,1957.69L254.067,2077.62L146.712,2076.45L148.142,928.78L248.721,926.88L257.754,479.812L408.424,476.897L409.553,330.423L561.015,330.742L565.758,188.03L836.024,183.891L839.412,115.025L839.412,115.028Z" style="fill:rgb(224,23,7);"/>
    </g>
    <g transform="matrix(-1,0,0,1,2349.56,0)">
        <path d="M1568.69,628.585L1568.69,486.273L1267.1,486.273L1267.1,628.585L1140.93,628.585L1140.93,1055.88L1272.56,1055.88L1272.56,1208.24L1567.89,1208.24L1567.89,1055.88L1732.83,1055.88L1732.83,628.585L1568.69,628.585Z" style="fill:rgb(255,252,252);"/>
    </g>
    <g transform="matrix(-1,0,0,1,2349.56,0)">
        <path d="M696.969,638.225L696.969,498.163L400.174,498.163L400.174,638.225L275.731,638.225L275.731,1061.12L400.174,1061.12L400.174,1211.1L696.969,1211.1L696.969,1061.12L857.499,1061.12L857.499,638.225L696.969,638.225Z" style="fill:white;"/>
    </g>
    <g transform="matrix(-1,0,0,1,2349.56,0)">
        <rect x="1148.18" y="789.058" width="277.266" height="267.264"/>
    </g>
    <g transform="matrix(-1,0,0,1,2349.56,0)">
        <rect x="270.52" y="795.523" width="284.25" height="267.569"/>
    </g>
</svg>
